<svg width="40" height="40" viewBox="0 0 40 40" fill="none" xmlns="http://www.w3.org/2000/svg">
    <g id="#f08256ff">
        <linearGradient id="background" x1="0.3" y1="0.7" x2="0.7" y2="0.3">
            <stop offset="20%" stop-color="#ffb488"/>
            <stop offset="80%" stop-color="#d7693d"/>
        </linearGradient>
        <circle fill="url(#background)" cx="20" cy="20" r="19.5"/>
        <circle fill="#000000" cx="20" cy="20" r="7.5"/>
    </g>
    <g id="#f8eaa5ff">
        <path fill="#f8eaa5" opacity="1"
              d=" M 11.1 7.0 C 12.7 6.6 12.9 9.2 14.1 9.3 C 15.2 7.0 18.1 6.4 19.5 8.1 C 22.0 6.3 24.8 7.0 26.0 9.3 C 27.2 9.0 27.4 6.7 28.9 7.0 C 30.1 8.5 29.6 10.6 28.8 12.1 C 30.6 13.2 31.1 15.3 29.6 16.8 C 31.0 18.2 30.9 20.5 29.3 21.7 C 29.7 22.8 29.6 24.0 29.3 25.2 C 29.6 26.4 29.8 27.7 28.8 28.7 C 29.0 29.2 29.1 29.6 29.3 30.0 C 29.2 30.4 28.9 31.2 28.8 31.6 C 29.4 32.5 29.6 33.5 29.3 34.6 C 29.6 35.1 29.7 36.0 29.6 37.0 C 27.3 38.3 24.8 39.3 22.2 39.3 C 15.3 39.3 12.2 38.4 10.4 37.0 C 10.3 36.0 10.4 35.1 10.7 34.6 C 10.4 33.5 10.6 32.5 11.2 31.6 C 11.1 31.2 10.8 30.4 10.7 30.0 C 10.9 29.6 11.1 29.1 11.2 28.7 C 10.2 27.7 10.4 26.4 10.7 25.2 C 10.4 24.0 10.3 22.9 10.7 21.7 C 9.2 20.5 9.0 18.2 10.4 16.8 C 8.9 15.3 9.4 13.2 11.2 12.2 C 10.4 10.6 9.9 8.5 11.1 7.0 M 11.5 8.1 C 11.5 8.8 10.8 10.7 12.0 10.5 C 12.2 10.4 12.7 10.0 12.9 9.9 C 12.8 9.7 12.6 9.2 12.5 9.0 C 12.2 8.7 11.8 8.4 11.5 8.1 M 27.5 9.0 C 27.4 9.2 27.2 9.7 27.1 9.9 C 27.3 10.0 27.8 10.4 28.0 10.5 C 29.2 10.7 28.5 8.8 28.5 8.1 C 28.2 8.3 27.8 8.7 27.5 9.0 M 14.5 18.8 C 15.8 19.3 16.4 20.6 16.5 21.9 C 17.6 22.7 17.9 24.0 17.7 25.3 C 18.0 25.7 18.3 26.0 18.7 26.4 C 19.6 26.2 20.5 26.2 21.3 26.4 C 21.7 26.0 22.0 25.7 22.3 25.3 C 22.1 24.0 22.4 22.7 23.5 21.9 C 23.6 20.6 24.2 19.3 25.6 18.8 C 25.6 15.0 21.8 18.2 20.0 16.5 C 18.2 18.2 14.4 15.0 14.5 18.8 Z"/>
        <path fill="#f8eaa5" opacity="0.5"
              d=" M 12.5 38.0 C 17.5 40.0, 22.5 40.0, 27.5 38.0"/>
    </g>
    <g id="#f6c52cff">
        <path fill="#f6c52c" opacity="1"
              d=" M 11.5 8.1 C 11.8 8.4 12.2 8.7 12.5 9.0 C 12.6 9.2 12.8 9.7 12.9 9.9 C 12.7 10.0 12.2 10.4 12.0 10.5 C 10.8 10.7 11.5 8.8 11.5 8.1 Z"/>
        <path fill="#f6c52c" opacity="1"
              d=" M 27.5 9.0 C 27.8 8.7 28.2 8.3 28.5 8.1 C 28.5 8.8 29.2 10.7 28.0 10.5 C 27.8 10.4 27.3 10.0 27.1 9.9 C 27.2 9.7 27.4 9.2 27.5 9.0 Z"/>
    </g>
    <g id="#ffffffff">
        <path fill="#ffffff" opacity="1"
              d=" M 14.5 18.8 C 14.4 15.0 18.2 18.2 20.0 16.5 C 21.8 18.2 25.6 15.0 25.6 18.8 C 24.2 19.3 23.6 20.6 23.5 21.9 C 22.4 22.7 22.1 24.0 22.3 25.3 C 22.0 25.7 21.7 26.0 21.3 26.4 C 20.5 26.2 19.6 26.2 18.7 26.4 C 18.3 26.0 18.0 25.7 17.7 25.3 C 17.9 24.0 17.6 22.7 16.5 21.9 C 16.4 20.6 15.8 19.3 14.5 18.8 M 16.1 17.1 C 15.0 17.3 15.3 19.2 16.4 18.5 C 17.5 18.3 16.9 17.0 16.1 17.1 M 23.6 17.2 C 22.55 17.5 23.1 18.7 24.1 18.6 C 25.2 18.6 24.5 16.7 23.6 17.2 M 17.9 20.9 C 19.1 22.1 20.4 23.1 19.6 25.1 C 19.3 24.9 18.8 24.7 18.5 24.6 C 18.5 24.8 18.5 25.3 18.5 25.5 C 19.5 25.5 20.5 25.5 21.5 25.5 C 21.5 25.3 21.5 24.8 21.5 24.6 C 21.2 24.7 20.7 24.9 20.4 25.1 C 19.6 23.1 21.0 22.1 22.2 20.9 C 20.7 21.5 19.3 21.5 17.9 20.9 Z"/>
    </g>
</svg>
